<svg version="1.1" id="Layer_1" xmlns="http://www.w3.org/2000/svg" xmlns:xlink="http://www.w3.org/1999/xlink" x="0px" y="0px" viewBox="0 0 141.7 141.7" style="enable-background:new 0 0 141.7 141.7;" xml:space="preserve">
<style type="text/css">
	.st0{fill:#79D37F;stroke:#fff;stroke-width:3.5;stroke-miterlimit:10;}
	.st1{fill:none;stroke:#fff;stroke-width:3.5;stroke-linecap:round;stroke-linejoin:round;stroke-miterlimit:10;}
	.st2{fill:;}
	.st3{fill:#000;}
	.st4{fill:#79D37F;}
	.st5{fill:#000;stroke:#fff;stroke-miterlimit:10;}
	.st6{fill:#fff;stroke:#fff;stroke-miterlimit:10;}
	.st7{fill:none;}
	.st8{enable-background:new    ;}
	.st9{opacity:0.4;fill:transparent;enable-background:new    ;}
	.st10{fill:#fff;}
	.st11{fill:#39B54A;}
	.st12{fill-rule:evenodd;clip-rule:evenodd;fill:#fff;}
	.st13{fill-rule:evenodd;clip-rule:evenodd;fill:#79D37F;}
	.st14{fill-rule:evenodd;clip-rule:evenodd;fill:#FFFFFE;}
	.st15{fill-rule:evenodd;clip-rule:evenodd;fill:#fff;stroke:#000;stroke-width:0.5;stroke-miterlimit:10;}
	.st16{fill-rule:evenodd;clip-rule:evenodd;fill:#182135;stroke:#000;stroke-width:0.5;stroke-miterlimit:10;}
	.st17{fill-rule:evenodd;clip-rule:evenodd;fill: #182135;stroke:#BADCF1;stroke-width:0.5;stroke-miterlimit:10;}
</style>
<path class="st15" d="M110.5,110.7H91.9c-9,0-16.3-7.3-16.3-16.3c0-9,7.3-16.3,16.3-16.3s16.3,7.3,16.3,16.3c0,2.2-1.7,3.9-3.9,3.9  c-2.2,0-3.9-1.7-3.9-3.9c0-4.7-3.8-8.5-8.5-8.5c-4.7,0-8.5,3.8-8.5,8.5c0,4.7,3.8,8.5,8.5,8.5c2.4,0,4.6-1,6.2-2.7  c1.6,1.7,3.9,2.7,6.2,2.7c4.7,0,8.5-3.8,8.5-8.5c0-11.6-9.4-21-21-21c-1.8,0-3.6,0.2-5.3,0.7c2.5-4,3.9-8.6,3.9-13.3  C90.5,47.1,79.4,36,65.7,36C52.1,36,41,47.1,41,60.7c0,9.6,5.5,18,13.6,22.1c-12.3,4.5-21,16.4-21,30.2c0,1.3,1,2.3,2.3,2.3h74.7  c1.3,0,2.3-1,2.3-2.3C112.9,111.7,111.8,110.7,110.5,110.7"/>
<path class="st16" d="M91.9,98.2c-2.2,0-3.9-1.7-3.9-3.9c0-2.2,1.7-3.9,3.9-3.9c2.2,0,3.9,1.7,3.9,3.9C95.8,96.5,94,98.2,91.9,98.2"/>
<path class="st17" d="M45.7,60.7c0-11.1,9-20.1,20.1-20.1c11.1,0,20.1,9,20.1,20.1s-9,20.1-20.1,20.1S45.7,71.8,45.7,60.7"/>
<path class="st16" d="M38.3,110.7c1.2-14.1,13-25.2,27.4-25.2c2.3,0,4.6,0.3,6.7,0.8c-1.1,2.5-1.6,5.3-1.6,8  c0,6.6,3.1,12.5,7.8,16.3L38.3,110.7L38.3,110.7z"/>
</svg>